<?xml version="1.0" encoding="utf-8"?>
<!-- Generator: Adobe Illustrator 27.6.1, SVG Export Plug-In . SVG Version: 6.00 Build 0)  -->
<svg version="1.1" id="Camada_2" xmlns="http://www.w3.org/2000/svg" xmlns:xlink="http://www.w3.org/1999/xlink" x="0px" y="0px"
	 viewBox="0 0 300 182" style="enable-background:new 0 0 300 182;" xml:space="preserve">
<style type="text/css">
	.st0{fill:#F1F3FA;}
	.st1{fill:#45464E;}
	.st2{fill:#5072B7;}
	.st3{fill:#B7C5E5;}
</style>
<rect class="st0" width="300" height="181.8"/>
<g id="Layer_1">
	<path class="st1" d="M76.1,83.4c4.1,0,6.6,1,6.6,5.2s-2.4,5.7-6.6,5.7H73V98c0,0.7,0.9,1.1,2.6,1.1v1.9H66v-1.9
		c1.4,0,2.1-0.4,2.1-1.1V86.4c0-0.7-0.7-1.1-2.1-1.1v-1.9L76.1,83.4L76.1,83.4z M73,85.9v5.8H75c2.3,0,3.1-0.9,3.1-3.2
		c0-1.7-0.8-2.6-3.1-2.6L73,85.9L73,85.9z"/>
	<path class="st1" d="M90.6,98c0,0.7,0.7,1.1,2,1.1v1.9h-8.4v-1.9c1.3,0,2-0.3,2-1.1V85.7c0-0.7-0.7-1.1-2-1.1v-1.9h6.4
		C90.6,82.7,90.6,98,90.6,98z"/>
	<path class="st1" d="M106.9,98.3c0,0.7,0.2,1,0.7,1s0.7-0.5,0.7-1v-1.2h1.4v0.7c0,2.6-1.8,3.3-3.3,3.3c-1.9,0-2.8-1-3.1-2.4
		c-0.6,1.4-2.2,2.6-4.7,2.6c-2.9,0-4.2-1.3-4.2-3.4c0-3.8,4.2-3.2,8.6-4.6v-0.7c0-1.4-0.8-2.6-2.5-2.6c-1.3,0-2.2,0.2-2.9,0.7
		c0.8,0.1,1.4,0.4,1.4,1.2c0,1-0.7,1.6-1.9,1.6S95,93.1,95,91.8c0-1.8,2.1-3.4,5.9-3.4c2.9,0,6,0.9,6,4.3L106.9,98.3L106.9,98.3z
		 M102.8,94.5c-3,1.2-4.7,1.4-4.7,3.2c0,0.8,0.5,1.4,1.8,1.4s2.4-0.8,2.9-1.8V94.5L102.8,94.5z"/>
	<path class="st1" d="M116.6,88.9h3.1l-0.1,2c-0.9-0.2-1.8-0.3-3-0.3v7.6c0,0.7,0.2,1.1,0.9,1.1c0.6,0,0.9-0.4,0.9-1.1v-1.1h1.4v0.7
		c0,2-0.9,3.3-3.5,3.3c-3,0-4-1.3-4-3.5v-7h-2v-1.5c1.7-0.1,3.5-0.6,3.5-3.3v-0.5l2.9-0.2L116.6,88.9L116.6,88.9z"/>
	<path class="st1" d="M128,101.4c-3.5,0-6.6-1.3-6.6-6.2c0-4.5,2.3-6.7,6.8-6.7c3.6,0,6.6,1.4,6.6,6.5
		C134.8,99.1,132.3,101.4,128,101.4z M125.7,94.5c0,3.9,0.7,4.8,2.3,4.8c1.8,0,2.4-1.2,2.4-4.3c0-3.6-0.8-4.5-2.3-4.5
		C126.5,90.6,125.7,91.7,125.7,94.5z"/>
	<path class="st2" d="M145.3,83.4c5.6,0,8.8,1.4,8.8,8.4c0,7-3.2,9.3-8.8,9.3h-9v-0.8c1.4,0,2.1-0.3,2.1-1.1V85.3
		c0-0.7-0.7-1.1-2.1-1.1v-0.8C136.3,83.4,145.3,83.4,145.3,83.4z M140.9,84.7v15.1h4.8c4.3,0,5.8-3.2,5.8-7.9c0-4.7-1.5-7.1-5.8-7.1
		C145.7,84.7,140.9,84.7,140.9,84.7z"/>
	<path class="st2" d="M158,94.6c0,3.6,1.4,5.8,4,5.8c2.1,0,3.8-0.8,4.4-3.2l0.9,0.4c-0.6,2-2.1,3.9-5.4,3.9c-2.9,0-6.2-1.3-6.2-6.5
		c0-3.8,2.3-6.5,6.3-6.5c3.7,0,5.7,2.3,5.7,6.1L158,94.6L158,94.6z M165.6,93.7c0-2.5-1.3-4.2-3.6-4.2c-2,0-3.8,1.2-4,4.2H165.6z"/>
	<path class="st2" d="M183.4,89.7c-1,0-1.6,0.3-1.8,0.8L177,101h-2l-4.4-10.5c-0.2-0.6-0.8-0.8-1.7-0.8v-0.8h6.2v0.8h-1.5
		c-0.5,0-0.7,0.2-0.7,0.4c0,0.2,0,0.3,0.1,0.4l3.6,8.9l3.7-8.7c0.1-0.1,0.1-0.2,0.1-0.3c0-0.5-0.4-0.7-1.1-0.7h-1v-0.8h5.1
		L183.4,89.7L183.4,89.7z"/>
	<path class="st2" d="M186.4,94.6c0,3.6,1.4,5.8,4,5.8c2.1,0,3.8-0.8,4.4-3.2l0.9,0.4c-0.6,2-2.1,3.9-5.4,3.9
		c-2.9,0-6.2-1.3-6.2-6.5c0-3.8,2.3-6.5,6.3-6.5c3.7,0,5.7,2.3,5.7,6.1L186.4,94.6L186.4,94.6z M194.1,93.7c0-2.5-1.3-4.2-3.6-4.2
		c-2,0-3.8,1.2-4,4.2H194.1z"/>
	<path class="st2" d="M202.1,99.1c0,0.7,0.7,1.1,2.1,1.1v0.8h-6.3v-0.8c1.4,0,2.1-0.3,2.1-1.1V84.6c0-0.7-0.7-1.1-2.1-1.1v-0.8h4.2
		L202.1,99.1L202.1,99.1z"/>
	<path class="st2" d="M218.6,94.9c0,3.9-2.3,6.5-6.5,6.5c-3.3,0-6.2-1.6-6.2-6.2c0-4.1,2.1-6.7,6.5-6.7
		C215.8,88.4,218.6,90.1,218.6,94.9L218.6,94.9z M208.1,94.4c0,4.7,1.6,6,4,6c3.1,0,4.3-2.3,4.3-5.3c0-4.4-1.7-5.6-4-5.6
		C209.5,89.4,208.1,91.5,208.1,94.4z"/>
	<path class="st2" d="M223,90.8c0.8-1.6,2.4-2.4,4.8-2.4c3.2,0,6.1,1.9,6.1,6.5c0,4.6-3.4,6.5-6.5,6.5c-1.7,0-3.1-0.5-3.8-1.3v4.6
		c0,0.7,0.9,1.1,2.6,1.1v0.8h-6.9v-0.8c1.4,0,2.1-0.4,2.1-1.1V90.8c0-0.7-0.7-1.1-2.1-1.1v-0.8h3.4L223,90.8L223,90.8z M223.5,94.9
		c0,2.9,1,5.5,4,5.5c3,0,4.2-2.6,4.2-5.5c0-2.9-1.1-5.5-4.2-5.5C224.5,89.4,223.5,92,223.5,94.9z"/>
	<polygon class="st2" points="121.7,80.2 121.7,88.2 128.2,83.5 126.5,80.2 	"/>
	<polygon class="st2" points="126.5,75.4 126.5,80.2 129.7,80.2 132.9,80.2 128.2,83.5 134.5,88.2 134.5,78.6 	"/>
	<polygon class="st3" points="126.5,80.2 128.2,83.5 132.9,80.2 	"/>
</g>
</svg>
