<?xml version="1.0" encoding="UTF-8"?>
<svg id="Camada_2" xmlns="http://www.w3.org/2000/svg" viewBox="0 0 840.32 156.11">
    <defs>
        <style>.cls-1{fill:#5072B7;}.cls-2{fill:#DCDDE2;}.cls-3{fill:#b7c5e5;}</style>
    </defs>
    <g id="Layer_1">
        <path class="cls-2"
            d="m50.57,39.84c20.66,0,32.79,4.92,32.79,25.83s-12.13,28.47-32.79,28.47h-15.98v18.74c0,3.72,4.44,5.53,13.21,5.53v9.73H0v-9.73c6.97,0,10.57-1.8,10.57-5.53v-57.78c0-3.72-3.6-5.53-10.57-5.53v-9.73h50.57Zm-15.98,12.73v28.95h10.45c11.41,0,15.5-4.56,15.5-15.86,0-8.29-4.08-13.09-15.5-13.09h-10.45Z" />
        <path class="cls-2"
            d="m123,113.11c0,3.72,3.24,5.41,10.09,5.41v9.61h-41.92v-9.61c6.73,0,10.09-1.68,10.09-5.41v-61.62c0-3.6-3.36-5.41-10.09-5.41v-9.49h31.83v76.51Z" />
        <path class="cls-2"
            d="m204.44,114.67c0,3.48,1.08,5.04,3.36,5.04,2.16,0,3.36-2.28,3.36-5.04v-6.01h6.97v3.72c0,13.21-8.77,16.58-16.7,16.58-9.73,0-13.93-5.17-15.62-12.01-2.88,6.85-10.81,13.21-23.66,13.21-14.77,0-21.14-6.73-21.14-16.82,0-18.86,20.9-15.98,42.88-23.06v-3.6c0-6.85-3.84-13.21-12.73-13.21-6.49,0-10.81,1.2-14.29,3.6,3.84.24,6.97,1.92,6.97,6.25,0,4.92-3.24,8.05-9.61,8.05s-9.49-3-9.49-9.25c0-8.89,10.69-16.82,29.43-16.82,14.77,0,30.27,4.56,30.27,21.74v27.63Zm-20.42-19.34c-14.89,6.25-23.42,6.97-23.42,15.86,0,4.08,2.76,7.09,8.89,7.09s11.89-3.96,14.53-9.13v-13.81Z" />
        <path class="cls-2"
            d="m253.2,67.59h15.5l-.6,10.21c-4.32-.96-9.25-1.32-14.89-1.32v37.84c0,3.72,1.2,5.41,4.44,5.41s4.44-2.04,4.44-5.41v-5.65h6.97v3.6c0,9.97-4.44,16.7-17.54,16.7-14.77,0-20.06-6.73-20.06-17.42v-35.07h-10.21v-7.33c8.65-.6,17.3-3.12,17.3-16.7v-2.64l14.65-.84v18.62Z" />
        <path class="cls-2"
            d="m310.01,130.17c-17.78,0-33.03-6.61-33.03-31.11,0-22.34,11.53-33.75,34.11-33.75,18.26,0,33.15,6.97,33.15,32.31,0,21.14-12.49,32.55-34.23,32.55Zm-11.53-34.47c0,19.7,3.6,24.02,11.77,24.02,9.13,0,12.25-6.25,12.25-21.5,0-18.14-4.08-22.34-11.65-22.34-8.53,0-12.37,5.53-12.37,19.82Z" />
        <path class="cls-1"
            d="m396.73,39.84c27.87,0,43.84,6.97,43.84,41.8s-15.98,46.49-43.84,46.49h-45.04v-4.2c6.97,0,10.57-1.68,10.57-5.41V49.45c0-3.72-3.6-5.41-10.57-5.41v-4.2h45.04Zm-22.22,6.49v75.31h24.14c21.5,0,29.07-16.1,29.07-39.64s-7.57-35.67-29.07-35.67h-24.14Z" />
        <path class="cls-1"
            d="m460.15,95.93c0,18.02,6.85,29.19,20.18,29.19,10.33,0,18.86-4.2,22.1-16.1l4.68,1.8c-3.12,10.09-10.69,19.34-26.79,19.34-14.65,0-30.87-6.61-30.87-32.31,0-19.22,11.53-32.55,31.59-32.55,18.38,0,28.47,11.41,28.47,30.63h-49.37Zm38.2-4.56c0-12.61-6.73-21.14-17.9-21.14-10.21,0-18.86,6.01-20.18,21.14h38.08Z" />
        <path class="cls-1"
            d="m587.12,71.55c-4.8,0-8.17,1.44-9.25,4.08l-22.34,52.49h-9.97l-21.98-52.37c-1.2-2.76-3.96-4.2-8.53-4.2v-3.96h31.23v3.96h-7.69c-2.28,0-3.48.84-3.48,2.16,0,.84.12,1.44.36,2.04l17.9,44.44,18.5-43.48c.36-.6.48-1.08.48-1.68,0-2.28-1.8-3.48-5.65-3.48h-4.92v-3.96h25.34v3.96Z" />
        <path class="cls-1"
            d="m602.49,95.93c0,18.02,6.85,29.19,20.18,29.19,10.33,0,18.86-4.2,22.1-16.1l4.68,1.8c-3.12,10.09-10.69,19.34-26.79,19.34-14.65,0-30.87-6.61-30.87-32.31,0-19.22,11.53-32.55,31.59-32.55,18.38,0,28.47,11.41,28.47,30.63h-49.37Zm38.2-4.56c0-12.61-6.73-21.14-17.9-21.14-10.21,0-18.86,6.01-20.18,21.14h38.08Z" />
        <path class="cls-1"
            d="m681.16,118.76c0,3.72,3.48,5.29,10.57,5.29v4.08h-31.71v-4.08c6.97,0,10.45-1.56,10.45-5.29V45.85c0-3.48-3.48-5.29-10.45-5.29v-3.96h21.14v82.16Z" />
        <path class="cls-1"
            d="m763.56,97.62c0,19.58-11.53,32.55-32.43,32.55-16.58,0-30.99-8.05-30.99-31.11,0-20.42,10.57-33.75,32.31-33.75,17.06,0,31.11,8.29,31.11,32.31Zm-52.61-2.4c0,23.54,8.17,29.91,20.18,29.91,15.74,0,21.5-11.53,21.5-26.79,0-22.1-8.53-28.11-20.06-28.11-14.77,0-21.62,10.57-21.62,24.98Z" />
        <path class="cls-1"
            d="m785.54,77.2c3.96-8.05,12.01-11.89,24.14-11.89,15.86,0,30.63,9.37,30.63,32.31s-16.82,32.55-32.31,32.55c-8.41,0-15.5-2.4-19.1-6.37v23.06c0,3.6,4.44,5.41,13.21,5.41v3.84h-34.47v-3.84c6.97,0,10.57-1.8,10.57-5.41v-69.79c0-3.72-3.6-5.53-10.57-5.53v-3.96h16.94l.96,9.61Zm2.52,20.54c0,14.53,4.92,27.39,20.18,27.39s21.02-12.85,21.02-27.39-5.77-27.51-21.02-27.51-20.18,12.85-20.18,27.51Z" />
        <polygon class="cls-1" points="278.4 24.02 278.4 64.06 311.1 40.71 302.42 24.02 278.4 24.02" />
        <polygon class="cls-1"
            points="302.42 0 302.42 24.02 318.43 24.02 334.45 24.02 311.1 40.71 342.46 64.06 342.46 16.02 302.42 0" />
        <polygon class="cls-3" points="302.41 24.06 311.06 40.69 334.31 24.06 302.41 24.06" />
    </g>
</svg>