<?xml version="1.0" encoding="UTF-8"?>
<svg id="Camada_2" xmlns="http://www.w3.org/2000/svg" viewBox="0 0 167.9 31.19">
    <defs>
        <style>.cls-1{fill:#dcdde2;}.cls-2{fill:#5072b7;}.cls-3{fill:#89a3d4;}.cls-4{fill:#b7c5e5;}</style>
    </defs>
    <g id="Layer_1">
        <path class="cls-1"
            d="m10.1,7.96c4.13,0,6.55.98,6.55,5.16s-2.42,5.69-6.55,5.69h-3.19v3.74c0,.74.89,1.1,2.64,1.1v1.94H0v-1.94c1.39,0,2.11-.36,2.11-1.1v-11.54c0-.74-.72-1.1-2.11-1.1v-1.94h10.1Zm-3.19,2.54v5.78h2.09c2.28,0,3.1-.91,3.1-3.17,0-1.66-.82-2.62-3.1-2.62h-2.09Z" />
        <path class="cls-1"
            d="m24.58,22.6c0,.74.65,1.08,2.02,1.08v1.92h-8.38v-1.92c1.34,0,2.02-.34,2.02-1.08v-12.31c0-.72-.67-1.08-2.02-1.08v-1.9h6.36v15.29Z" />
        <path class="cls-1"
            d="m40.85,22.91c0,.7.22,1.01.67,1.01s.67-.46.67-1.01v-1.2h1.39v.74c0,2.64-1.75,3.31-3.34,3.31-1.94,0-2.78-1.03-3.12-2.4-.58,1.37-2.16,2.64-4.73,2.64-2.95,0-4.22-1.34-4.22-3.36,0-3.77,4.18-3.19,8.57-4.61v-.72c0-1.37-.77-2.64-2.54-2.64-1.3,0-2.16.24-2.86.72.77.05,1.39.38,1.39,1.25,0,.98-.65,1.61-1.92,1.61s-1.9-.6-1.9-1.85c0-1.78,2.14-3.36,5.88-3.36,2.95,0,6.05.91,6.05,4.34v5.52Zm-4.08-3.86c-2.98,1.25-4.68,1.39-4.68,3.17,0,.82.55,1.42,1.78,1.42s2.38-.79,2.9-1.82v-2.76Z" />
        <path class="cls-1"
            d="m50.59,13.5h3.1l-.12,2.04c-.87-.19-1.85-.26-2.98-.26v7.56c0,.74.24,1.08.89,1.08s.89-.41.89-1.08v-1.13h1.39v.72c0,1.99-.89,3.34-3.5,3.34-2.95,0-4.01-1.34-4.01-3.48v-7.01h-2.04v-1.46c1.73-.12,3.46-.62,3.46-3.34v-.53l2.93-.17v3.72Z" />
        <path class="cls-1"
            d="m61.94,26.01c-3.55,0-6.6-1.32-6.6-6.22,0-4.46,2.3-6.74,6.82-6.74,3.65,0,6.62,1.39,6.62,6.46,0,4.22-2.5,6.5-6.84,6.5Zm-2.3-6.89c0,3.94.72,4.8,2.35,4.8,1.82,0,2.45-1.25,2.45-4.3,0-3.62-.82-4.46-2.33-4.46-1.7,0-2.47,1.1-2.47,3.96Z" />
        <path class="cls-3"
            d="m79.27,7.96c5.57,0,8.76,1.39,8.76,8.35s-3.19,9.29-8.76,9.29h-9v-.84c1.39,0,2.11-.34,2.11-1.08v-13.8c0-.74-.72-1.08-2.11-1.08v-.84h9Zm-4.44,1.3v15.05h4.83c4.3,0,5.81-3.22,5.81-7.92s-1.51-7.13-5.81-7.13h-4.83Z" />
        <path class="cls-3"
            d="m91.94,19.17c0,3.6,1.37,5.83,4.03,5.83,2.06,0,3.77-.84,4.42-3.22l.94.36c-.62,2.02-2.14,3.86-5.35,3.86-2.93,0-6.17-1.32-6.17-6.46,0-3.84,2.3-6.5,6.31-6.5,3.67,0,5.69,2.28,5.69,6.12h-9.86Zm7.63-.91c0-2.52-1.34-4.22-3.58-4.22-2.04,0-3.77,1.2-4.03,4.22h7.61Z" />
        <path class="cls-3"
            d="m117.31,14.29c-.96,0-1.63.29-1.85.82l-4.46,10.49h-1.99l-4.39-10.46c-.24-.55-.79-.84-1.7-.84v-.79h6.24v.79h-1.54c-.46,0-.7.17-.7.43,0,.17.02.29.07.41l3.58,8.88,3.7-8.69c.07-.12.1-.22.1-.34,0-.46-.36-.7-1.13-.7h-.98v-.79h5.06v.79Z" />
        <path class="cls-3"
            d="m120.38,19.17c0,3.6,1.37,5.83,4.03,5.83,2.06,0,3.77-.84,4.42-3.22l.94.36c-.62,2.02-2.14,3.86-5.35,3.86-2.93,0-6.17-1.32-6.17-6.46,0-3.84,2.3-6.5,6.31-6.5,3.67,0,5.69,2.28,5.69,6.12h-9.86Zm7.63-.91c0-2.52-1.34-4.22-3.58-4.22-2.04,0-3.77,1.2-4.03,4.22h7.61Z" />
        <path class="cls-3"
            d="m136.1,23.73c0,.74.7,1.06,2.11,1.06v.82h-6.34v-.82c1.39,0,2.09-.31,2.09-1.06v-14.57c0-.7-.7-1.06-2.09-1.06v-.79h4.22v16.42Z" />
        <path class="cls-3"
            d="m152.57,19.5c0,3.91-2.3,6.5-6.48,6.5-3.31,0-6.19-1.61-6.19-6.22,0-4.08,2.11-6.74,6.46-6.74,3.41,0,6.22,1.66,6.22,6.46Zm-10.51-.48c0,4.7,1.63,5.98,4.03,5.98,3.14,0,4.3-2.3,4.3-5.35,0-4.42-1.7-5.62-4.01-5.62-2.95,0-4.32,2.11-4.32,4.99Z" />
        <path class="cls-3"
            d="m156.96,15.42c.79-1.61,2.4-2.38,4.82-2.38,3.17,0,6.12,1.87,6.12,6.46s-3.36,6.5-6.46,6.5c-1.68,0-3.1-.48-3.82-1.27v4.61c0,.72.89,1.08,2.64,1.08v.77h-6.89v-.77c1.39,0,2.11-.36,2.11-1.08v-13.94c0-.74-.72-1.1-2.11-1.1v-.79h3.38l.19,1.92Zm.5,4.1c0,2.9.98,5.47,4.03,5.47s4.2-2.57,4.2-5.47-1.15-5.5-4.2-5.5-4.03,2.57-4.03,5.5Z" />
        <polygon class="cls-2" points="55.62 4.8 55.62 12.8 62.16 8.13 60.42 4.8 55.62 4.8" />
        <polygon class="cls-2"
            points="60.42 0 60.42 4.8 63.62 4.8 66.82 4.8 62.16 8.13 68.42 12.8 68.42 3.2 60.42 0" />
        <polygon class="cls-4" points="60.42 4.8 62.16 8.13 66.82 4.8 60.42 4.8" />
    </g>
</svg>