<?xml version="1.0" encoding="UTF-8"?><svg id="Layer_1" xmlns="http://www.w3.org/2000/svg" viewBox="0 0 200 40"><defs><style>.cls-1{letter-spacing:0em;}.cls-1,.cls-2,.cls-3,.cls-4,.cls-5{fill:#5072b7;}.cls-1,.cls-3,.cls-4,.cls-5{font-family:SuperclarendonLt-Regular, Superclarendon;}.cls-6,.cls-7{fill:#45464e;font-family:SuperclarendonRg-Bold, Superclarendon;font-weight:700;}.cls-6,.cls-3{letter-spacing:-.01em;}.cls-7{letter-spacing:-.04em;}.cls-8{font-size:24px;}.cls-4{letter-spacing:-.04em;}.cls-9{fill:#b7c5e5;}.cls-5{letter-spacing:-.03em;}</style></defs><text class="cls-8" transform="translate(16 32)"><tspan class="cls-6" x="0" y="0">Pl</tspan><tspan class="cls-7" x="28.13" y="0">a</tspan><tspan class="cls-6" x="44.16" y="0">to</tspan><tspan class="cls-3" x="70.27" y="0">D</tspan><tspan class="cls-5" x="89.66" y="0">e</tspan><tspan class="cls-4" x="102.86" y="0">v</tspan><tspan class="cls-1" x="118.1" y="0">elop</tspan></text><polygon class="cls-2" points="72.51 11.2 72.51 19.2 79.05 14.53 77.31 11.2 72.51 11.2"/><polygon class="cls-2" points="77.31 6.4 77.31 11.2 80.51 11.2 83.71 11.2 79.05 14.53 85.31 19.2 85.31 9.6 77.31 6.4"/><polygon class="cls-9" points="77.31 11.21 79.04 14.53 83.69 11.21 77.31 11.21"/><text class="cls-8" transform="translate(16 32)"><tspan class="cls-6" x="0" y="0">Pl</tspan><tspan class="cls-7" x="28.13" y="0">a</tspan><tspan class="cls-6" x="44.16" y="0">to</tspan><tspan class="cls-3" x="70.27" y="0">D</tspan><tspan class="cls-5" x="89.66" y="0">e</tspan><tspan class="cls-4" x="102.86" y="0">v</tspan><tspan class="cls-1" x="118.1" y="0">elop</tspan></text><polygon class="cls-2" points="72.51 11.2 72.51 19.2 79.05 14.53 77.31 11.2 72.51 11.2"/><polygon class="cls-2" points="77.31 6.4 77.31 11.2 80.51 11.2 83.71 11.2 79.05 14.53 85.31 19.2 85.31 9.6 77.31 6.4"/><polygon class="cls-9" points="77.31 11.21 79.04 14.53 83.69 11.21 77.31 11.21"/></svg>